# xmcd
#
# Track frame offsets:
#   150
#   16650
#   37785
#   55053
#   81512
#   104450
#   123506
#   138582
#   155668
#   171481
#   190750
#   208111
#   228253
#   246328
#   264805
#   281079
#   298963
#
# Disc length: 4207 seconds
#
# Revision: 0
# Processed by: cddbd v1.5.1PL0 Copyright (c) Steve Scherf et al.
# Submitted via: uFREEDB ActiveX Control 1.5
#
DISCID=f8106d11
DTITLE=RICK E RENNER - 10 ANOS DE SUCESSO
DYEAR=1900
DGENRE=Country
TTITLE0=SÓ PENSANDO EM VOCÊ
TTITLE1=A FORÇA DO AMOR
TTITLE2=NOS BARES DA CIDADE
TTITLE3=VOU GANHAR VOCÊ
TTITLE4=MIL VEZES CANTAREI - UNA Y MIL VECES
TTITLE5=SEM DIREÇÃO
TTITLE6=PRECISO DE ENCONTRAR
TTITLE7=FIM DE SEMANA
TTITLE8=MULECA
TTITLE9=SEGUIR EM FRENTE
TTITLE10=BANDIDA
TTITLE11=FILHA
TTITLE12=BABY
TTITLE13=CARA-DE-PAU
TTITLE14=ELA É DEMAIS
TTITLE15=INSTANTE MÁGICO
TTITLE16=SEM NOME
EXTD=
EXTT0=
EXTT1=
EXTT2=
EXTT3=
EXTT4=
EXTT5=
EXTT6=
EXTT7=
EXTT8=
EXTT9=
EXTT10=
EXTT11=
EXTT12=
EXTT13=
EXTT14=
EXTT15=
EXTT16=
PLAYORDER=
